<mxfile host="65bd71144e">
    <diagram id="Zjyw20n5VY5fcWsYk5_Q" name="Page-1">
        <mxGraphModel dx="286360" dy="306525" grid="1" gridSize="10" guides="1" tooltips="1" connect="1" arrows="1" fold="1" page="1" pageScale="1" pageWidth="850" pageHeight="1100" background="light-dark(#ffffff, #ededed)" math="0" shadow="0">
            <root>
                <mxCell id="0"/>
                <mxCell id="1" parent="0"/>
                <mxCell id="68" style="edgeStyle=none;html=1;" edge="1" parent="1" source="13" target="login_check">
                    <mxGeometry relative="1" as="geometry"/>
                </mxCell>
                <mxCell id="13" value="Start" style="ellipse;whiteSpace=wrap;html=1;" parent="1" vertex="1">
                    <mxGeometry x="360" y="-10" width="80" height="40" as="geometry"/>
                </mxCell>
                <mxCell id="end" value="End" style="ellipse;whiteSpace=wrap;html=1;" parent="1" vertex="1">
                    <mxGeometry x="382.5" y="1260" width="80" height="40" as="geometry"/>
                </mxCell>
                <mxCell id="23" style="edgeStyle=none;html=1;entryX=0.5;entryY=0;entryDx=0;entryDy=0;" parent="1" source="login_check" target="redirect_login" edge="1">
                    <mxGeometry relative="1" as="geometry">
                        <mxPoint x="160" y="800" as="targetPoint"/>
                        <Array as="points">
                            <mxPoint x="240" y="100"/>
                            <mxPoint x="170" y="100"/>
                        </Array>
                    </mxGeometry>
                </mxCell>
                <mxCell id="24" value="No" style="edgeLabel;html=1;align=center;verticalAlign=middle;resizable=0;points=[];" parent="23" vertex="1" connectable="0">
                    <mxGeometry x="0.2391" y="-1" relative="1" as="geometry">
                        <mxPoint as="offset"/>
                    </mxGeometry>
                </mxCell>
                <mxCell id="login_check" value="User Logged In?" style="rhombus;whiteSpace=wrap;html=1;" parent="1" vertex="1">
                    <mxGeometry x="345" y="70" width="110" height="60" as="geometry"/>
                </mxCell>
                <mxCell id="redirect_login" value="Redirect to Login/Sign Up" style="rounded=0;whiteSpace=wrap;html=1;fillColor=#D0E0FF;" parent="1" vertex="1">
                    <mxGeometry x="110" y="570" width="120" height="40" as="geometry"/>
                </mxCell>
                <mxCell id="25" style="edgeStyle=none;html=1;" parent="1" source="ask_question" target="duplicate_check" edge="1">
                    <mxGeometry relative="1" as="geometry"/>
                </mxCell>
                <mxCell id="ask_question" value="User: Ask Question" style="rounded=0;whiteSpace=wrap;html=1;fillColor=#D0E0FF;" parent="1" vertex="1">
                    <mxGeometry x="340" y="160" width="120" height="40" as="geometry"/>
                </mxCell>
                <mxCell id="31" style="edgeStyle=none;html=1;entryX=0;entryY=0.5;entryDx=0;entryDy=0;" parent="1" source="duplicate_check" target="ask_question" edge="1">
                    <mxGeometry relative="1" as="geometry">
                        <Array as="points">
                            <mxPoint x="280" y="300"/>
                            <mxPoint x="280" y="180"/>
                        </Array>
                        <mxPoint x="280" y="370" as="targetPoint"/>
                    </mxGeometry>
                </mxCell>
                <mxCell id="72" value="No" style="edgeLabel;html=1;align=center;verticalAlign=middle;resizable=0;points=[];" vertex="1" connectable="0" parent="31">
                    <mxGeometry x="-0.0202" y="1" relative="1" as="geometry">
                        <mxPoint as="offset"/>
                    </mxGeometry>
                </mxCell>
                <mxCell id="32" style="edgeStyle=none;html=1;entryX=0.5;entryY=0;entryDx=0;entryDy=0;" parent="1" source="duplicate_check" target="post_question" edge="1">
                    <mxGeometry relative="1" as="geometry">
                        <Array as="points">
                            <mxPoint x="518" y="300"/>
                        </Array>
                    </mxGeometry>
                </mxCell>
                <mxCell id="38" value="Yes" style="edgeLabel;html=1;align=center;verticalAlign=middle;resizable=0;points=[];" parent="32" vertex="1" connectable="0">
                    <mxGeometry x="-0.5338" y="1" relative="1" as="geometry">
                        <mxPoint as="offset"/>
                    </mxGeometry>
                </mxCell>
                <mxCell id="duplicate_check" value="Admin:Approve" style="rhombus;whiteSpace=wrap;html=1;" parent="1" vertex="1">
                    <mxGeometry x="345" y="270" width="110" height="60" as="geometry"/>
                </mxCell>
                <mxCell id="40" style="edgeStyle=none;html=1;" parent="1" source="post_question" target="community_actions" edge="1">
                    <mxGeometry relative="1" as="geometry"/>
                </mxCell>
                <mxCell id="85" style="edgeStyle=none;html=1;entryX=0.5;entryY=0;entryDx=0;entryDy=0;" edge="1" parent="1" source="post_question" target="79">
                    <mxGeometry relative="1" as="geometry">
                        <Array as="points">
                            <mxPoint x="760" y="390"/>
                        </Array>
                    </mxGeometry>
                </mxCell>
                <mxCell id="post_question" value="Post Question" style="rounded=0;whiteSpace=wrap;html=1;fillColor=#D0E0FF;" parent="1" vertex="1">
                    <mxGeometry x="455" y="370" width="125" height="40" as="geometry"/>
                </mxCell>
                <mxCell id="community_actions" value="Community: Vote/Comment" style="rounded=0;whiteSpace=wrap;html=1;fillColor=#D0FFD0;" parent="1" vertex="1">
                    <mxGeometry x="442.5" y="470" width="150" height="40" as="geometry"/>
                </mxCell>
                <mxCell id="41" style="edgeStyle=none;html=1;entryX=1;entryY=0.5;entryDx=0;entryDy=0;exitX=0;exitY=0.5;exitDx=0;exitDy=0;" parent="1" source="answer_login_check" target="redirect_login" edge="1">
                    <mxGeometry relative="1" as="geometry"/>
                </mxCell>
                <mxCell id="75" value="No" style="edgeLabel;html=1;align=center;verticalAlign=middle;resizable=0;points=[];" vertex="1" connectable="0" parent="41">
                    <mxGeometry x="-0.1299" relative="1" as="geometry">
                        <mxPoint as="offset"/>
                    </mxGeometry>
                </mxCell>
                <mxCell id="answer_login_check" value="User Logged In?" style="rhombus;whiteSpace=wrap;html=1;rounded=1;" parent="1" vertex="1">
                    <mxGeometry x="362.5" y="560" width="120" height="60" as="geometry"/>
                </mxCell>
                <mxCell id="82" style="edgeStyle=none;html=1;" edge="1" parent="1" source="answer_question" target="79">
                    <mxGeometry relative="1" as="geometry"/>
                </mxCell>
                <mxCell id="89" style="edgeStyle=none;html=1;" edge="1" parent="1" source="answer_question" target="vote_answers">
                    <mxGeometry relative="1" as="geometry"/>
                </mxCell>
                <mxCell id="answer_question" value="User: Answer Question" style="rounded=0;whiteSpace=wrap;html=1;fillColor=#D0E0FF;" parent="1" vertex="1">
                    <mxGeometry x="362.5" y="680" width="120" height="40" as="geometry"/>
                </mxCell>
                <mxCell id="90" style="edgeStyle=none;html=1;entryX=0.5;entryY=1;entryDx=0;entryDy=0;" edge="1" parent="1" source="vote_answers" target="accepted_check">
                    <mxGeometry relative="1" as="geometry"/>
                </mxCell>
                <mxCell id="vote_answers" value="Community: Vote on Answers" style="rounded=0;whiteSpace=wrap;html=1;fillColor=#D0FFD0;" parent="1" vertex="1">
                    <mxGeometry x="347.5" y="780" width="150" height="40" as="geometry"/>
                </mxCell>
                <mxCell id="100" style="edgeStyle=none;html=1;entryX=0.5;entryY=0;entryDx=0;entryDy=0;" edge="1" parent="1" source="accepted_check" target="top_answer">
                    <mxGeometry relative="1" as="geometry"/>
                </mxCell>
                <mxCell id="101" style="edgeStyle=none;html=1;entryX=0.5;entryY=0;entryDx=0;entryDy=0;" edge="1" parent="1" source="accepted_check" target="mark_solution">
                    <mxGeometry relative="1" as="geometry">
                        <Array as="points">
                            <mxPoint x="210" y="925"/>
                        </Array>
                    </mxGeometry>
                </mxCell>
                <mxCell id="accepted_check" value="Accepted by OP?" style="rhombus;whiteSpace=wrap;html=1;" parent="1" vertex="1">
                    <mxGeometry x="362.5" y="895" width="120" height="60" as="geometry"/>
                </mxCell>
                <mxCell id="mark_solution" value="Mark Solution âœ…" style="rounded=0;whiteSpace=wrap;html=1;fillColor=#D0E0FF;" parent="1" vertex="1">
                    <mxGeometry x="150" y="1005" width="120" height="40" as="geometry"/>
                </mxCell>
                <mxCell id="104" value="" style="edgeStyle=none;html=1;" edge="1" parent="1" source="top_answer" target="103">
                    <mxGeometry relative="1" as="geometry"/>
                </mxCell>
                <mxCell id="top_answer" value="Top Voted Answer Wins" style="rounded=0;whiteSpace=wrap;html=1;fillColor=#D0E0FF;" parent="1" vertex="1">
                    <mxGeometry x="352.5" y="1005" width="140" height="40" as="geometry"/>
                </mxCell>
                <mxCell id="51" style="edgeStyle=none;html=1;" parent="1" source="review_flags" target="violation_check" edge="1">
                    <mxGeometry relative="1" as="geometry"/>
                </mxCell>
                <mxCell id="review_flags" value="Admin: Review Flags" style="rounded=0;whiteSpace=wrap;html=1;fillColor=#FFD0D0;" parent="1" vertex="1">
                    <mxGeometry x="700" y="795" width="120" height="40" as="geometry"/>
                </mxCell>
                <mxCell id="65" style="edgeStyle=none;html=1;entryX=0.5;entryY=0;entryDx=0;entryDy=0;" edge="1" parent="1" source="violation_check" target="warn_user">
                    <mxGeometry relative="1" as="geometry">
                        <mxPoint x="960" y="1010" as="targetPoint"/>
                        <Array as="points">
                            <mxPoint x="950" y="925"/>
                        </Array>
                    </mxGeometry>
                </mxCell>
                <mxCell id="67" value="Yes" style="edgeLabel;html=1;align=center;verticalAlign=middle;resizable=0;points=[];" vertex="1" connectable="0" parent="65">
                    <mxGeometry x="-0.3664" y="2" relative="1" as="geometry">
                        <mxPoint as="offset"/>
                    </mxGeometry>
                </mxCell>
                <mxCell id="91" style="edgeStyle=none;html=1;entryX=1;entryY=0.5;entryDx=0;entryDy=0;" edge="1" parent="1" source="violation_check" target="vote_answers">
                    <mxGeometry relative="1" as="geometry">
                        <Array as="points">
                            <mxPoint x="600" y="925"/>
                            <mxPoint x="600" y="800"/>
                        </Array>
                    </mxGeometry>
                </mxCell>
                <mxCell id="98" value="No" style="edgeLabel;html=1;align=center;verticalAlign=middle;resizable=0;points=[];" vertex="1" connectable="0" parent="91">
                    <mxGeometry x="0.0499" y="1" relative="1" as="geometry">
                        <mxPoint as="offset"/>
                    </mxGeometry>
                </mxCell>
                <mxCell id="violation_check" value="Violation?" style="rhombus;whiteSpace=wrap;html=1;" parent="1" vertex="1">
                    <mxGeometry x="720" y="895" width="80" height="60" as="geometry"/>
                </mxCell>
                <mxCell id="106" style="edgeStyle=none;html=1;entryX=1;entryY=0.5;entryDx=0;entryDy=0;" edge="1" parent="1" source="delete_content" target="end">
                    <mxGeometry relative="1" as="geometry">
                        <Array as="points">
                            <mxPoint x="950" y="1280"/>
                        </Array>
                    </mxGeometry>
                </mxCell>
                <mxCell id="delete_content" value="Delete/Close Content" style="rounded=0;whiteSpace=wrap;html=1;fillColor=#FFD0D0;" parent="1" vertex="1">
                    <mxGeometry x="890" y="1110" width="120" height="40" as="geometry"/>
                </mxCell>
                <mxCell id="87" style="edgeStyle=none;html=1;" edge="1" parent="1" source="warn_user" target="delete_content">
                    <mxGeometry relative="1" as="geometry"/>
                </mxCell>
                <mxCell id="warn_user" value="Warn/Suspend User" style="rounded=0;whiteSpace=wrap;html=1;fillColor=#FFD0D0;" parent="1" vertex="1">
                    <mxGeometry x="890" y="1005" width="120" height="40" as="geometry"/>
                </mxCell>
                <mxCell id="c1" style="endArrow=classic;html=1;" parent="1" source="13" target="login_check" edge="1"/>
                <mxCell id="c2" style="endArrow=classic;html=1;exitX=0.5;exitY=1;exitDx=0;exitDy=0;" parent="1" source="login_check" target="ask_question" edge="1">
                    <mxGeometry relative="1" as="geometry"/>
                </mxCell>
                <mxCell id="c4" style="endArrow=classic;html=1;" parent="1" source="ask_question" target="duplicate_check" edge="1"/>
                <mxCell id="c7" style="endArrow=classic;html=1;" parent="1" source="post_question" target="community_actions" edge="1"/>
                <mxCell id="c8" style="endArrow=classic;html=1;" parent="1" source="community_actions" target="answer_login_check" edge="1"/>
                <mxCell id="c10" style="endArrow=classic;html=1;exitX=0.5;exitY=1;exitDx=0;exitDy=0;" parent="1" source="answer_login_check" target="answer_question" edge="1">
                    <mxGeometry relative="1" as="geometry"/>
                </mxCell>
                <mxCell id="74" value="Yes" style="edgeLabel;html=1;align=center;verticalAlign=middle;resizable=0;points=[];" vertex="1" connectable="0" parent="c10">
                    <mxGeometry x="-0.1394" y="-1" relative="1" as="geometry">
                        <mxPoint as="offset"/>
                    </mxGeometry>
                </mxCell>
                <mxCell id="c11" style="endArrow=classic;html=1;" parent="1" source="answer_question" target="vote_answers" edge="1"/>
                <mxCell id="c12" style="endArrow=classic;html=1;" parent="1" source="vote_answers" target="accepted_check" edge="1"/>
                <mxCell id="c19" style="endArrow=classic;html=1;" parent="1" source="review_flags" target="violation_check" edge="1"/>
                <mxCell id="c21" style="endArrow=classic;html=1;" parent="1" source="delete_content" target="warn_user" edge="1"/>
                <mxCell id="69" style="edgeStyle=none;html=1;entryX=0.444;entryY=0.085;entryDx=0;entryDy=0;entryPerimeter=0;" edge="1" parent="1" source="community_actions" target="answer_login_check">
                    <mxGeometry relative="1" as="geometry">
                        <Array as="points">
                            <mxPoint x="416" y="490"/>
                        </Array>
                    </mxGeometry>
                </mxCell>
                <mxCell id="83" style="edgeStyle=none;html=1;" edge="1" parent="1" source="79" target="review_flags">
                    <mxGeometry relative="1" as="geometry"/>
                </mxCell>
                <mxCell id="79" value="User:Report" style="rounded=0;whiteSpace=wrap;html=1;fillColor=#f8cecc;strokeColor=#b85450;" vertex="1" parent="1">
                    <mxGeometry x="700" y="675" width="120" height="50" as="geometry"/>
                </mxCell>
                <mxCell id="105" style="edgeStyle=none;html=1;" edge="1" parent="1" source="103" target="end">
                    <mxGeometry relative="1" as="geometry"/>
                </mxCell>
                <mxCell id="103" value="User:Log Out" style="rhombus;whiteSpace=wrap;html=1;rounded=0;" vertex="1" parent="1">
                    <mxGeometry x="368.75" y="1110" width="107.5" height="80" as="geometry"/>
                </mxCell>
            </root>
        </mxGraphModel>
    </diagram>
</mxfile>